# xmcd
#
# Track frame offsets:
#	150
#	14638
#	30812
#	46066
#	61938
#	77143
#	95106
#	109228
#	128335
#	148205
#	163147
#	174704
#	188632
#	202718
#
# Disc length: 2962 seconds
# Revision: 0
# Processed by: cddbd v1.5.2PL0 Copyright (c) Steve Scherf et al.
# Submitted via: dBpowerAMP V12.0
#
DISCID=b40b900e
DTITLE=Coup d'marron - Pour les chiens
DYEAR=2010
DGENRE=Chanson
TTITLE0=Empoigne
TTITLE1=Rien ne bouge
TTITLE2=Brule
TTITLE3=C'est mieux comme ca
TTITLE4=Brussel
TTITLE5=Jamais l'heure
TTITLE6=Mon nom d'Allemagne
TTITLE7=Dawson
TTITLE8=J'attends
TTITLE9=Je reste chez moi
TTITLE10=Mon ventre
TTITLE11=Mes dentelles
TTITLE12=Les racines
TTITLE13=Seville
EXTD=
EXTT0=
EXTT1=
EXTT2=
EXTT3=
EXTT4=
EXTT5=
EXTT6=
EXTT7=
EXTT8=
EXTT9=
EXTT10=
EXTT11=
EXTT12=
EXTT13=
PLAYORDER=
